<svg xmlns="http://www.w3.org/2000/svg" xmlns:xlink="http://www.w3.org/1999/xlink" width="500" zoomAndPan="magnify" viewBox="0 0 375 374.999991" height="500" preserveAspectRatio="xMidYMid meet" version="1.0"><defs><clipPath id="207c361253"><path d="M 9.078125 91.113281 L 366 91.113281 L 366 268.863281 L 9.078125 268.863281 Z M 9.078125 91.113281 " clip-rule="nonzero"/></clipPath></defs><rect x="-37.5" width="450" fill="#ffffff" y="-37.499999" height="449.999989" fill-opacity="1"/><rect x="-37.5" width="450" fill="#ffffff" y="-37.499999" height="449.999989" fill-opacity="1"/><g clip-path="url(#207c361253)"><path fill="#233dff" d="M 259.175781 181.277344 C 259.175781 163.898438 252.863281 147.601562 241.3125 134.863281 C 242.257812 133.035156 242.800781 130.960938 242.800781 128.761719 C 242.800781 121.441406 236.84375 115.488281 229.523438 115.488281 C 222.207031 115.488281 216.25 121.441406 216.25 128.761719 C 216.25 136.082031 222.207031 142.039062 229.523438 142.039062 C 231.222656 142.039062 232.847656 141.710938 234.339844 141.128906 C 244.339844 152.144531 249.800781 166.242188 249.800781 181.277344 C 249.800781 184.8125 249.492188 188.273438 248.902344 191.640625 L 202.371094 191.640625 C 200.472656 186.625 195.621094 183.050781 189.949219 183.050781 C 182.628906 183.050781 176.671875 189.007812 176.671875 196.324219 C 176.671875 203.648438 182.628906 209.601562 189.949219 209.601562 C 195.621094 209.601562 200.472656 206.023438 202.371094 201.011719 L 246.457031 201.011719 C 238.4375 223.910156 216.871094 240.5 191.414062 241.113281 C 189.511719 236.109375 184.667969 232.542969 179.003906 232.542969 C 171.683594 232.542969 165.726562 238.496094 165.726562 245.820312 C 165.726562 253.136719 171.683594 259.09375 179.003906 259.09375 C 184.679688 259.09375 189.535156 255.507812 191.429688 250.484375 C 228.917969 249.695312 259.175781 218.953125 259.175781 181.277344 Z M 158.914062 231.304688 C 158.914062 223.984375 152.957031 218.027344 145.636719 218.027344 C 143.941406 218.027344 142.316406 218.351562 140.824219 218.9375 C 130.824219 207.921875 125.359375 193.820312 125.359375 178.785156 C 125.359375 175.253906 125.671875 171.792969 126.257812 168.425781 L 172.792969 168.425781 C 174.691406 173.441406 179.542969 177.015625 185.214844 177.015625 C 192.535156 177.015625 198.488281 171.058594 198.488281 163.742188 C 198.488281 156.417969 192.535156 150.464844 185.214844 150.464844 C 179.542969 150.464844 174.691406 154.039062 172.792969 159.054688 L 128.707031 159.054688 C 136.726562 136.15625 158.292969 119.566406 183.75 118.953125 C 185.652344 123.957031 190.496094 127.527344 196.160156 127.527344 C 203.480469 127.527344 209.4375 121.570312 209.4375 114.246094 C 209.4375 106.929688 203.480469 100.972656 196.160156 100.972656 C 190.480469 100.972656 185.628906 104.554688 183.734375 109.582031 C 146.242188 110.371094 115.988281 141.109375 115.988281 178.785156 C 115.988281 196.167969 122.296875 212.464844 133.851562 225.203125 C 132.902344 227.03125 132.363281 229.105469 132.363281 231.304688 C 132.363281 238.625 138.316406 244.578125 145.636719 244.578125 C 152.957031 244.578125 158.914062 238.625 158.914062 231.304688 Z M 365.859375 169.304688 C 365.859375 176.929688 359.675781 183.117188 352.046875 183.117188 C 347.222656 183.117188 342.972656 180.640625 340.503906 176.886719 L 276.433594 176.886719 C 276.46875 177.933594 276.488281 178.980469 276.488281 180.03125 C 276.488281 184.394531 276.175781 188.675781 275.570312 192.863281 L 307.445312 192.863281 C 309.894531 188.992188 314.210938 186.417969 319.132812 186.417969 C 326.761719 186.417969 332.941406 192.601562 332.941406 200.230469 C 332.941406 207.855469 326.761719 214.039062 319.132812 214.039062 C 314.167969 214.039062 309.820312 211.421875 307.386719 207.492188 L 272.167969 207.492188 C 260.597656 243.15625 227.101562 268.941406 187.582031 268.941406 C 148.0625 268.941406 114.566406 243.15625 102.996094 207.492188 L 70.34375 207.492188 C 67.910156 211.421875 63.558594 214.039062 58.59375 214.039062 C 50.964844 214.039062 44.78125 207.855469 44.78125 200.230469 C 44.78125 192.601562 50.964844 186.417969 58.59375 186.417969 C 63.515625 186.417969 67.832031 188.992188 70.277344 192.863281 L 99.59375 192.863281 C 98.988281 188.675781 98.675781 184.394531 98.675781 180.03125 C 98.675781 178.980469 98.691406 177.933594 98.730469 176.886719 L 34.523438 176.886719 C 32.050781 180.640625 27.804688 183.117188 22.976562 183.117188 C 15.351562 183.117188 9.167969 176.929688 9.167969 169.304688 C 9.167969 161.675781 15.351562 155.492188 22.976562 155.492188 C 28.035156 155.492188 32.453125 158.210938 34.863281 162.265625 L 100.449219 162.265625 C 108.683594 121.675781 144.5625 91.125 187.582031 91.125 C 230.597656 91.125 266.480469 121.675781 274.710938 162.265625 L 340.164062 162.265625 C 342.570312 158.210938 346.992188 155.492188 352.046875 155.492188 C 359.675781 155.492188 365.859375 161.675781 365.859375 169.304688 Z M 179.003906 241.914062 C 176.851562 241.914062 175.101562 243.664062 175.101562 245.820312 C 175.101562 247.96875 176.851562 249.722656 179.003906 249.722656 C 181.15625 249.722656 182.90625 247.96875 182.90625 245.820312 C 182.90625 243.664062 181.15625 241.914062 179.003906 241.914062 Z M 189.949219 192.421875 C 187.796875 192.421875 186.046875 194.175781 186.046875 196.324219 C 186.046875 198.480469 187.796875 200.230469 189.949219 200.230469 C 192.101562 200.230469 193.851562 198.480469 193.851562 196.324219 C 193.851562 194.175781 192.101562 192.421875 189.949219 192.421875 Z M 196.160156 118.152344 C 198.3125 118.152344 200.0625 116.402344 200.0625 114.246094 C 200.0625 112.097656 198.3125 110.347656 196.160156 110.347656 C 194.007812 110.347656 192.257812 112.097656 192.257812 114.246094 C 192.257812 116.402344 194.007812 118.152344 196.160156 118.152344 Z M 185.214844 167.644531 C 187.367188 167.644531 189.117188 165.890625 189.117188 163.742188 C 189.117188 161.585938 187.367188 159.835938 185.214844 159.835938 C 183.058594 159.835938 181.308594 161.585938 181.308594 163.742188 C 181.308594 165.890625 183.058594 167.644531 185.214844 167.644531 Z M 229.523438 124.859375 C 227.375 124.859375 225.621094 126.609375 225.621094 128.761719 C 225.621094 130.914062 227.375 132.664062 229.523438 132.664062 C 231.675781 132.664062 233.429688 130.914062 233.429688 128.761719 C 233.429688 126.609375 231.675781 124.859375 229.523438 124.859375 Z M 149.542969 231.304688 C 149.542969 233.457031 147.789062 235.207031 145.636719 235.207031 C 143.484375 235.207031 141.734375 233.457031 141.734375 231.304688 C 141.734375 229.152344 143.484375 227.402344 145.636719 227.402344 C 147.789062 227.402344 149.542969 229.152344 149.542969 231.304688 " fill-opacity="1" fill-rule="nonzero"/></g><path fill="#ffffff" d="M 22.828125 172.925781 C 24.980469 172.925781 26.730469 171.179688 26.730469 169.023438 C 26.730469 166.871094 24.980469 165.125 22.828125 165.125 C 20.675781 165.125 18.921875 166.871094 18.921875 169.023438 C 18.921875 171.179688 20.675781 172.925781 22.828125 172.925781 " fill-opacity="1" fill-rule="nonzero"/><path fill="#ffffff" d="M 58.917969 204.132812 C 61.070312 204.132812 62.820312 202.382812 62.820312 200.230469 C 62.820312 198.078125 61.070312 196.324219 58.917969 196.324219 C 56.765625 196.324219 55.015625 198.078125 55.015625 200.230469 C 55.015625 202.382812 56.765625 204.132812 58.917969 204.132812 " fill-opacity="1" fill-rule="nonzero"/><path fill="#ffffff" d="M 352.605469 173.5 C 354.761719 173.5 356.511719 171.75 356.511719 169.597656 C 356.511719 167.445312 354.761719 165.695312 352.605469 165.695312 C 350.457031 165.695312 348.703125 167.445312 348.703125 169.597656 C 348.703125 171.75 350.457031 173.5 352.605469 173.5 " fill-opacity="1" fill-rule="nonzero"/><path fill="#ffffff" d="M 319.472656 203.328125 C 321.625 203.328125 323.375 201.578125 323.375 199.421875 C 323.375 197.273438 321.625 195.519531 319.472656 195.519531 C 317.320312 195.519531 315.570312 197.273438 315.570312 199.421875 C 315.570312 201.578125 317.320312 203.328125 319.472656 203.328125 " fill-opacity="1" fill-rule="nonzero"/></svg>